<svg id="Hygiene_Icons" enable-background="new 0 0 256 256" height="512" viewBox="0 0 256 256" width="512" xmlns="http://www.w3.org/2000/svg"><g><g><g><path d="m208.887 139.533h-194.38c-5.802 0-10.507-4.705-10.507-10.507 0-5.803 4.705-10.507 10.507-10.507h194.38c12.185 0 22.098-9.913 22.098-22.097v-10.829c0-12.185-9.913-22.098-22.098-22.098s-22.098 9.913-22.098 22.098c0 5.803-4.705 10.507-10.507 10.507-5.803 0-10.507-4.705-10.507-10.507 0-23.772 19.34-43.113 43.113-43.113s43.112 19.34 43.112 43.113v10.828c0 23.772-19.341 43.112-43.113 43.112z" fill="#f4efed"/></g></g><g><g><path d="m113.445 98.011h-98.938c-5.802 0-10.507-4.704-10.507-10.507s4.705-10.507 10.507-10.507h98.937c8.805 0 15.969-7.163 15.969-15.968v-5.574c0-8.805-7.164-15.969-15.969-15.969s-15.969 7.164-15.969 15.969c0 5.803-4.705 10.507-10.507 10.507-5.803 0-10.507-4.705-10.507-10.507 0-20.393 16.591-36.984 36.984-36.984s36.984 16.591 36.984 36.984v5.574c-.001 20.392-16.591 36.982-36.984 36.982z" fill="#f4efed"/></g></g><g><g><path d="m172.987 237.53c-20.393 0-36.984-16.591-36.984-36.983 0-5.803 4.705-10.507 10.507-10.507 5.803 0 10.507 4.705 10.507 10.507 0 8.805 7.164 15.968 15.969 15.968s15.969-7.163 15.969-15.968v-5.574c0-8.805-7.164-15.969-15.969-15.969h-158.479c-5.802-.001-10.507-4.705-10.507-10.508s4.705-10.507 10.507-10.507h158.479c20.393 0 36.984 16.591 36.984 36.984v5.574c0 20.392-16.59 36.983-36.983 36.983z" fill="#f4efed"/></g></g><g><g><path d="m12 87.504c0-5.803 4.705-10.507 10.507-10.507h-8c-5.802 0-10.507 4.704-10.507 10.507s4.705 10.507 10.507 10.507h8c-5.802 0-10.507-4.704-10.507-10.507z" fill="#fff"/></g></g><g><g><path d="m12 129.026c0-5.803 4.705-10.507 10.507-10.507h-8c-5.802-.001-10.507 4.704-10.507 10.507s4.705 10.507 10.507 10.507h8c-5.802 0-10.507-4.705-10.507-10.507z" fill="#fff"/></g></g><g><g><path d="m12 168.496c0-5.803 4.705-10.507 10.507-10.507h-8c-5.802 0-10.507 4.704-10.507 10.507s4.705 10.507 10.507 10.507h8c-5.802 0-10.507-4.704-10.507-10.507z" fill="#fff"/></g></g><g><g><path d="m113.445 18.47c-1.352 0-2.685.078-4 .22 18.518 2.001 32.984 17.722 32.984 36.764v5.574c0 20.392-16.591 36.983-36.984 36.983h8c20.393 0 36.984-16.591 36.984-36.983v-5.574c-.001-20.393-16.591-36.984-36.984-36.984z" fill="#d6d1cf"/></g></g><g><g><path d="m172.987 157.989h-8c20.393 0 36.984 16.59 36.984 36.984v5.574c0 19.041-14.465 34.762-32.984 36.763 1.315.142 2.648.22 4 .22 20.393 0 36.984-16.59 36.984-36.983v-5.574c-.001-20.394-16.591-36.984-36.984-36.984z" fill="#d6d1cf"/></g></g><g><g><path d="m208.887 42.48c-1.349 0-2.682.071-4 .192 21.903 2.026 39.113 20.498 39.113 42.921v10.828c0 23.772-19.341 43.112-43.113 43.112h8c23.772 0 43.113-19.34 43.113-43.112v-10.828c0-23.773-19.341-43.113-43.113-43.113z" fill="#d6d1cf"/></g></g><g><g><path d="m113.444 100.011h-98.937c-6.896 0-12.507-5.611-12.507-12.507s5.611-12.507 12.507-12.507h98.937c7.703 0 13.969-6.266 13.969-13.968v-5.574c0-7.703-6.267-13.969-13.969-13.969-7.703 0-13.969 6.266-13.969 13.969 0 6.896-5.611 12.507-12.507 12.507s-12.507-5.611-12.507-12.507c0-21.496 17.488-38.984 38.983-38.984 21.496 0 38.984 17.488 38.984 38.984v5.574c0 21.494-17.488 38.982-38.984 38.982zm-98.937-21.014c-4.691 0-8.507 3.816-8.507 8.507s3.816 8.507 8.507 8.507h98.937c19.29 0 34.984-15.693 34.984-34.983v-5.574c0-19.29-15.694-34.984-34.984-34.984s-34.983 15.694-34.983 34.984c0 4.691 3.816 8.507 8.507 8.507s8.507-3.816 8.507-8.507c0-9.908 8.061-17.969 17.969-17.969s17.969 8.06 17.969 17.969v5.574c0 9.908-8.061 17.968-17.969 17.968h-98.937z" fill="#690589"/></g></g><g><g><path d="m172.987 239.53c-21.496 0-38.984-17.488-38.984-38.983 0-6.897 5.611-12.508 12.507-12.508s12.507 5.611 12.507 12.508c0 7.702 6.267 13.968 13.969 13.968 7.703 0 13.969-6.266 13.969-13.968v-5.575c0-7.702-6.266-13.969-13.969-13.969h-158.479c-6.896 0-12.507-5.61-12.507-12.507s5.611-12.507 12.507-12.507h158.48c21.496 0 38.983 17.488 38.983 38.983v5.575c0 21.495-17.488 38.983-38.983 38.983zm-26.477-47.491c-4.691 0-8.507 3.816-8.507 8.508 0 19.289 15.694 34.983 34.984 34.983s34.983-15.693 34.983-34.983v-5.575c0-19.29-15.693-34.983-34.983-34.983h-158.48c-4.691 0-8.507 3.816-8.507 8.507s3.816 8.507 8.507 8.507h158.48c9.908 0 17.969 8.061 17.969 17.969v5.575c0 9.907-8.061 17.968-17.969 17.968s-17.969-8.061-17.969-17.968c0-4.692-3.817-8.508-8.508-8.508z" fill="#690589"/></g></g><g><g><path d="m208.887 141.533h-194.38c-6.896 0-12.507-5.611-12.507-12.507 0-6.897 5.611-12.508 12.507-12.508h194.379c11.082 0 20.099-9.016 20.099-20.097v-10.828c0-11.082-9.016-20.098-20.099-20.098-11.082 0-20.098 9.016-20.098 20.098 0 6.897-5.611 12.507-12.507 12.507s-12.507-5.611-12.507-12.507c0-24.875 20.237-45.113 45.113-45.113s45.113 20.237 45.113 45.113v10.828c0 24.875-20.238 45.112-45.113 45.112zm-194.38-21.015c-4.691 0-8.507 3.816-8.507 8.508 0 4.691 3.816 8.507 8.507 8.507h194.379c22.67 0 41.113-18.443 41.113-41.112v-10.828c0-22.67-18.443-41.113-41.113-41.113s-41.113 18.443-41.113 41.113c0 4.691 3.816 8.507 8.507 8.507s8.507-3.816 8.507-8.507c0-13.288 10.811-24.098 24.098-24.098 13.288 0 24.099 10.811 24.099 24.098v10.828c0 13.287-10.811 24.097-24.099 24.097z" fill="#690589"/></g></g><g><ellipse cx="128" cy="128" fill="#526faa" rx="42.019" ry="42.019" transform="matrix(.924 -.383 .383 .924 -39.24 58.727)"/></g><g><path d="m128 85.981c-1.18 0-2.345.061-3.5.156 21.567 1.78 38.519 19.836 38.519 41.863s-16.952 40.082-38.519 41.863c1.155.095 2.32.156 3.5.156 23.206 0 42.019-18.813 42.019-42.019s-18.813-42.019-42.019-42.019z" fill="#34518c"/></g><g><path d="m128 170.019c1.18 0 2.345-.061 3.5-.156-21.567-1.78-38.519-19.836-38.519-41.863s16.952-40.082 38.519-41.863c-1.155-.095-2.32-.156-3.5-.156-23.206 0-42.019 18.813-42.019 42.019s18.813 42.019 42.019 42.019z" fill="#708dc8"/></g><g><path d="m92.942 130.565c-1.104 0-2-.895-2-2 0-4.261.582-8.481 1.728-12.543.3-1.063 1.406-1.68 2.468-1.381 1.063.3 1.681 1.405 1.381 2.468-1.047 3.709-1.578 7.563-1.578 11.456.001 1.104-.894 2-1.999 2z" fill="#690589"/></g><g><path d="m128 172.019c-24.272 0-44.019-19.747-44.019-44.019s19.747-44.019 44.019-44.019 44.019 19.747 44.019 44.019-19.747 44.019-44.019 44.019zm0-84.038c-22.066 0-40.019 17.953-40.019 40.019s17.953 40.019 40.019 40.019 40.019-17.953 40.019-40.019-17.953-40.019-40.019-40.019z" fill="#690589"/></g><g><g><g><path d="m123.406 145.779-21.704-20.573 7.489-7.899 14.467 13.713 23.425-20.799 7.215 8.153z" fill="#f4efed"/></g></g></g><g><g><g><path d="m123.406 147.778c-.496 0-.991-.184-1.376-.548l-21.704-20.572c-.385-.365-.609-.868-.624-1.398-.014-.53.183-1.045.548-1.429l7.489-7.9c.761-.8 2.026-.836 2.828-.076l13.135 12.451 22.053-19.58c.397-.353.919-.533 1.448-.501.53.032 1.025.273 1.377.671l7.215 8.152c.732.827.655 2.089-.17 2.822l-30.892 27.405c-.379.336-.854.503-1.327.503zm-18.876-22.647 18.921 17.934 28.025-24.862-4.564-5.156-21.927 19.468c-.774.689-1.949.67-2.704-.044l-13.015-12.337z" fill="#690589"/></g></g></g><g><path d="m77.654 198.993 7.755 4.241-7.755 4.241-4.241 7.754-4.241-7.754-7.754-4.241 7.754-4.241 4.241-7.754z" fill="#f4efed"/></g><g><path d="m73.414 217.23c-.731 0-1.404-.399-1.755-1.041l-3.96-7.24-7.24-3.959c-.642-.351-1.041-1.024-1.041-1.755s.399-1.404 1.041-1.755l7.24-3.96 3.96-7.24c.351-.641 1.024-1.04 1.755-1.04.731 0 1.404.399 1.755 1.04l3.959 7.24 7.24 3.96c.642.351 1.04 1.024 1.04 1.755s-.399 1.404-1.04 1.755l-7.24 3.959-3.959 7.24c-.352.642-1.024 1.041-1.755 1.041zm-7.828-13.996 4.546 2.486c.336.184.612.46.795.795l2.486 4.546 2.486-4.546c.184-.336.46-.612.795-.795l4.546-2.486-4.546-2.486c-.335-.184-.611-.459-.795-.795l-2.486-4.545-2.486 4.546c-.184.336-.459.611-.795.795z" fill="#690589"/></g><g><path d="m221.965 174.984c-.731 0-1.404-.399-1.755-1.04l-3.959-7.24-7.24-3.959c-.642-.351-1.04-1.024-1.04-1.755s.399-1.404 1.04-1.755l7.24-3.96 3.959-7.24c.351-.642 1.024-1.04 1.755-1.04s1.404.399 1.755 1.04l3.96 7.24 7.24 3.96c.641.351 1.04 1.024 1.04 1.755s-.399 1.404-1.041 1.755l-7.24 3.959-3.96 7.24c-.35.641-1.023 1.04-1.754 1.04zm-7.827-13.995 4.546 2.486c.336.184.612.46.795.795l2.486 4.546 2.486-4.546c.184-.336.459-.612.795-.795l4.545-2.486-4.546-2.486c-.335-.184-.611-.459-.795-.795l-2.486-4.546-2.486 4.545c-.184.336-.46.612-.795.795z" fill="#690589"/></g><g><path d="m171.137 26.225 7.755 4.241-7.755 4.24-4.24 7.755-4.241-7.755-7.755-4.24 7.755-4.241 4.241-7.755z" fill="#f4efed"/></g><g><path d="m166.896 44.46c-.731 0-1.404-.399-1.755-1.04l-3.96-7.24-7.24-3.959c-.642-.351-1.04-1.024-1.04-1.755s.399-1.404 1.04-1.755l7.24-3.96 3.96-7.24c.351-.642 1.024-1.041 1.755-1.041.731 0 1.404.399 1.755 1.041l3.959 7.24 7.24 3.96c.642.351 1.04 1.024 1.04 1.755s-.399 1.404-1.04 1.755l-7.24 3.959-3.959 7.24c-.351.642-1.024 1.04-1.755 1.04zm-7.827-13.994 4.545 2.486c.336.184.612.459.796.795l2.486 4.546 2.486-4.545c.184-.336.46-.612.795-.795l4.546-2.486-4.546-2.486c-.336-.184-.612-.459-.795-.795l-2.486-4.546-2.486 4.546c-.184.336-.46.612-.795.795z" fill="#690589"/></g></g></svg>